<?xml version="1.0" encoding="UTF-8"?>
<svg id="_레이어_2" data-name="레이어 2" xmlns="http://www.w3.org/2000/svg" viewBox="0 0 58.1 57.35">
  <defs>
    <style>
      .cls-1 {
        fill: #231815;
        stroke-width: 0px;
      }
    </style>
  </defs>
  <g id="_레이어_1-2" data-name="레이어 1">
    <g>
      <g>
        <polygon class="cls-1" points="28.82 0 17.3 0 29.29 20.78 17.3 41.55 28.82 41.55 40.82 20.78 28.82 0"/>
        <polygon class="cls-1" points="46.11 0 34.59 0 46.58 20.78 34.59 41.55 46.11 41.55 58.1 20.78 46.11 0"/>
        <polygon class="cls-1" points="11.53 0 0 0 12.01 20.78 0 41.55 11.53 41.55 23.54 20.78 11.53 0"/>
      </g>
      <g>
        <path class="cls-1" d="m0,44.81h6.4c.87,0,1.61.05,2.21.14.6.09,1.09.22,1.48.38.39.16.69.34.9.55.21.21.37.42.46.65.1.23.15.46.17.69.02.23.02.45.02.66v2.99c0,.21,0,.43-.02.66-.02.23-.07.46-.17.69-.1.23-.25.44-.46.65-.21.21-.51.39-.9.55-.39.16-.89.28-1.48.38-.6.09-1.34.14-2.21.14h-1.08v3.39H0v-12.53Zm5.31,7.32h1.03v-5.5h-1.03v5.5Z"/>
        <path class="cls-1" d="m12.57,57.35v-12.53h5.31v10.62h2.85v1.92h-8.16Z"/>
        <path class="cls-1" d="m26.51,54.61l-.37,2.73h-5.23l2.74-12.53h7.18l2.74,12.53h-5.23l-.37-2.73h-1.46Zm.24-1.81h.99l-.49-3.32-.5,3.32Z"/>
        <path class="cls-1" d="m38.22,44.81l1.55,4.77,1.6-4.77h4.75l-3.67,9.01v3.53h-5.31v-3.61l-3.65-8.93h4.75Z"/>
      </g>
    </g>
  </g>
</svg>