<?xml version="1.0" encoding="UTF-8"?>
<svg id="_레이어_2" data-name="레이어 2" xmlns="http://www.w3.org/2000/svg" xmlns:xlink="http://www.w3.org/1999/xlink" viewBox="0 0 204.74 57.37">
  <defs>
    <style>
      .cls-1 {
        fill: #231815;
      }

      .cls-2 {
        fill: #fff;
      }

      .cls-3 {
        fill: none;
      }

      .cls-4 {
        fill: #e74566;
      }

      .cls-5 {
        clip-path: url(#clippath);
      }
    </style>
    <clipPath id="clippath">
      <rect class="cls-3" width="204.74" height="57.37"/>
    </clipPath>
  </defs>
  <g id="_레이어_2-2" data-name=" 레이어 2">
    <g class="cls-5">
      <g>
        <path class="cls-4" d="M92.32,38.62c.65-.29,1.04-.98.94-1.69-.82-5.9-1.99-11.8-3.58-17.54-1.2-4.34-2.86-8.69-4.85-12.74-1-2.04-3.45-6.97-6.48-5.6-.03.01-.05.02-.08.04-4.23,2.06,4.98,23.74,4.98,23.74,0,0,3.46,7.93,7.08,13.23.44.64,1.28.88,1.99.56"/>
        <path class="cls-4" d="M97.17,38.63h0c.78.3,1.67-.05,2.04-.81l6.62-13.68s3.75,7.92,7.48,5.26c3.73-2.66-.85-10.42-.85-10.42,0,0-3.3-7.45-7.92-4.66-4.62,2.79-7.83,19.82-7.83,19.82l-.54,2.66c-.16.77.27,1.55,1.01,1.83"/>
        <path class="cls-4" d="M102.6,52.74c.28-.35.54-.72.76-1.12,1.05-1.89,1.23-4.17.94-6.31-.19-1.42-.59-2.83-1.3-4.07-2.23-3.95-7.7-5.23-11.78-3.65-.46.18-.91.4-1.33.67-1.33.84-2.36,2.11-3.04,3.53-.68,1.42-1.01,2.99-1.13,4.55-.17,2.39.22,4.93,1.7,6.81,1.81,2.31,4.96,3.22,7.89,3.04,2.76-.18,5.57-1.34,7.29-3.45"/>
        <path class="cls-2" d="M90.44,45.58c0,.79-.6,1.42-1.33,1.42s-1.33-.64-1.33-1.42.6-1.42,1.33-1.42,1.33.64,1.33,1.42"/>
        <path class="cls-1" d="M89.9,45.58c0,.46-.35.84-.78.84s-.79-.38-.79-.84.35-.84.79-.84.78.38.78.84"/>
        <path class="cls-2" d="M94.85,45.58c0,.79-.6,1.42-1.33,1.42s-1.33-.64-1.33-1.42.6-1.42,1.33-1.42,1.33.64,1.33,1.42"/>
        <path class="cls-1" d="M94.31,45.58c0,.46-.35.84-.78.84s-.78-.38-.78-.84.35-.84.78-.84.78.38.78.84"/>
        <path class="cls-1" d="M24.29,21.08l7.81-1.24c.17-.03.32.11.3.28l-2.25,27.27c-.02.18.16.33.34.27l14.89-4.23c.16-.05.32.06.34.22l.73,5.62c.02.14-.08.26-.22.29l-22.66,3.61c-.16.03-.31-.1-.3-.26l.8-31.58c0-.12.09-.23.22-.25"/>
        <path class="cls-1" d="M57.14,25.83l1.05,26.61c0,.12-.08.23-.2.26l-6.77,1.45c-.17.04-.34-.09-.32-.27l1.93-27.54c.01-.18-.16-.32-.33-.27l-6.27,1.69c-.16.05-.32-.07-.33-.23l-.33-5.15c0-.14.09-.26.23-.27l16.71-1.95c.16-.02.3.11.29.27l-.26,5.07c0,.14-.13.25-.27.25l-4.84-.18c-.15,0-.27.12-.27.27"/>
        <path class="cls-1" d="M20.38,46.55l.21-6.16c0-.18-.17-.31-.34-.26l-8.85,2.37c-.18.06-.35-.08-.34-.27l.9-11.29c.01-.14.13-.24.26-.24l7.47-.27c.15,0,.27-.12.26-.27l-.56-3.69c0-.15-.15-.27-.3-.24l-6.51,1.37c-.16.02-.3-.1-.3-.26l.09-7.74c0-.14.11-.25.25-.26l9.25-.24c.16,0,.28-.16.25-.32l-1.27-5.49c-.03-.13-.16-.22-.29-.2L2.02,15.83c-.12.02-.21.12-.22.24l-.25,4.26c-.01.17.15.3.31.27l3.52-.74c.18-.04.33.11.31.29l-3.61,28.56c-.02.17.12.31.29.29l17.78-2.2c.13-.02.22-.12.23-.25"/>
        <path class="cls-1" d="M80.84,41.78l.33-5.24c.01-.17-.15-.31-.31-.27l-8.52,1.49c-.16.04-.31-.09-.32-.25l-.09-7.5c0-.14.11-.26.25-.26l7.47.2c.15,0,.26-.13.25-.28l-.6-3.47c-.01-.15-.15-.26-.31-.24l-6.74.93c-.17.03-.32-.1-.31-.27l.56-9.86c0-.14.13-.25.28-.24l9.39.28c.16.01.3-.13.28-.29l-.65-5.2c-.02-.14-.15-.24-.29-.23l-18.26,2.07c-.12.01-.22.11-.23.23l-.44,4.16c-.02.18.14.32.31.28l2.79-.6c.17-.04.33.1.31.27l-2.04,25.22c-.01.16.12.29.28.28l16.39-1c.13,0,.24-.11.24-.24"/>
        <path class="cls-1" d="M42.72,40.61l-.14-30.59c0-.17-.17-.3-.34-.25l-6.06,1.83c-.11.03-.18.13-.18.24l-.07,2.58c0,.2.18.31.38.24l1.58-.69c.18-.09.39.06.37.26l-2.83,27.72c-.02.17.13.3.29.28l6.77-1.37c.13-.02.23-.13.23-.26"/>
        <path class="cls-1" d="M42.85,6.65c.09-.11.18-.23.25-.36.34-.61.4-1.35.31-2.05-.06-.46-.19-.92-.42-1.32-.73-1.28-2.5-1.7-3.83-1.18-.15.06-.3.13-.43.22-.43.27-.77.68-.99,1.14s-.33.97-.37,1.48c-.06.77.07,1.6.55,2.21.59.75,1.61,1.04,2.57.98.9-.06,1.81-.43,2.37-1.12"/>
      </g>
    </g>
  </g>
</svg>